<svg xmlns="http://www.w3.org/2000/svg" width="88" height="49">
  <path fill-rule="evenodd" d="M52.5-.08L62.97 15.5h7.26c6.17 0 7.79.38 10.71 2.5 1.89 1.38 4.24 4.3 5.23 6.5.98 2.2 1.8 5.46 1.81 7.25.01 1.79-.46 4.49-1.04 6-.59 1.51-2.28 4.03-3.75 5.59-1.48 1.56-3.93 3.47-5.44 4.25-1.51.78-4.78 1.41-7.25 1.41-2.96 0-5.78-.79-8.25-2.32-2.06-1.27-4.75-3.86-5.97-5.75C54.7 38.49 54.04 35.91 54 32c-.05-4.3.49-6.32 2.47-9.25C58.33 20 58.73 18.6 58 17.5c-.8-1.21-2.33.22-7.76 7.25-6.7 8.66-6.82 8.75-11.5 9-4.28.23-4.8.52-5.33 3-.33 1.51-1.45 3.99-2.5 5.5C29.86 43.76 27.2 45.9 25 47s-5.8 2-8 2-5.24-.63-6.75-1.41c-1.51-.78-3.96-2.69-5.44-4.25-1.47-1.56-3.16-4.08-3.75-5.59-.58-1.51-1.05-4.21-1.04-6 .01-1.79.83-5.05 1.81-7.25.99-2.2 3.34-5.12 5.23-6.5 2.97-2.16 4.5-2.5 11.27-2.5 7.41 0 7.93-.15 11.67-5.5h-5c-3.15 0-5.13-.46-5.35-1.25-.2-.69-.2-1.81 0-2.5.24-.87 2.9-1.25 8.85-1.25 8.4 0 8.5.03 8.5 2.5 0 2.44.17 2.5 7.5 2.5 4.13 0 7.5-.22 7.5-.5s-.45-1.4-1-2.5c-.8-1.6-2-2-6-2-2.75 0-5.23-.45-5.5-1-.27-.55-.29-1.67-.02-2.5C39.83.38 41.55-.01 52.5-.08zM32.29 24.2c1.89 4.03 2.64 4.72 5.21 4.77 2.57.06 3.68-.86 7.75-6.45C47.86 18.93 50 15.77 50 15.5c0-.27-3.82-.5-8.48-.5-7.69 0-8.62.21-9.97 2.25-1.34 2.04-1.27 2.7.74 6.95zM5.51 31.35c-.01 3.04.68 5.42 2.1 7.33 1.16 1.55 3.63 3.43 5.5 4.18 2.07.83 4.56 1.08 6.39.64 1.65-.39 4.46-2.24 6.25-4.11C27.54 37.53 29 35.55 29 35c0-.57-3-1-7-1-5.99 0-7-.25-7.03-1.75-.02-.96 1.54-3.77 3.45-6.25 1.92-2.48 3.17-4.85 2.79-5.28-.39-.43-2.4-.76-4.48-.75-2.87.02-4.64.84-7.48 3.45-3.23 2.98-3.73 4.02-3.74 7.93zM70 26c1.65 2.48 2.99 5.29 3 6.25 0 1.08-.76 1.75-2 1.75-1.3 0-3.14-1.75-5.25-4.98-1.79-2.74-3.48-5.01-3.75-5.03-.27-.03-1.06 1.09-1.75 2.48S59 30.57 59 32.5c0 2.59.89 4.48 3.42 7.25 2.96 3.24 4.02 3.75 7.8 3.75 2.46 0 5.55-.76 7.07-1.75 1.49-.96 3.43-3.44 4.3-5.5.97-2.29 1.36-5.02 1-7-.36-2-1.93-4.4-4.09-6.25-2.62-2.25-4.5-3-7.5-3-2.2 0-4 .34-4 .75.01.41 1.35 2.77 3 5.25zm-45.38 0c-1.27 1.89-1.37 2.58-.4 2.82.71.18 2.04.18 2.96 0 1.46-.28 1.51-.65.4-2.82l-1.28-2.5-1.68 2.5z" opacity=".988"/>
</svg>
