<svg xmlns="http://www.w3.org/2000/svg" width="64" height="61">
  <defs/>
  <path id="Path 0" d="M1.98 2.31C.49 3.77-.31 5.63-.19 7.31-.09 8.79.9 10.9 2 12c1.15 1.15 3.38 2.02 5.25 2.04 1.79.03 4.22-.76 5.41-1.75 1.19-.98 2.43-2.69 2.74-3.79.33-1.15-.27-3.38-1.41-5.25C12.3.5 11.42 0 8.17 0 5.51 0 3.62.71 1.98 2.31zM41 20.64c-1.37.91-3.07 2.37-3.77 3.26-1.1 1.39-1.26 1.25-1.25-1.15C36 20.01 35.97 20 29 20h-7v41h14c-.05-25.73.08-26.63 2.22-28.73 1.4-1.37 3.54-2.24 5.53-2.25 2.27-.01 3.7.66 4.76 2.23 1.15 1.72 1.5 5.34 1.5 15.5L50 61h14c0-30.76-.04-31.06-2.75-35.05-1.51-2.23-4.21-4.7-6-5.5-1.79-.8-5.16-1.45-7.5-1.46-2.34 0-5.37.74-6.75 1.65zM1 40.5V61h14V20H1v20.5z"/>
</svg>
