<svg width="26" height="20" viewBox="0 0 26 20" xmlns="http://www.w3.org/2000/svg"><path d="M25.33 2.366c-.92.402-1.908.674-2.945.796A5.086 5.086 0 0 0 24.639.369c-.994.579-2.09.999-3.259 1.227A5.15 5.15 0 0 0 17.637 0c-2.832 0-5.129 2.262-5.129 5.05 0 .395.046.781.133 1.15A14.635 14.635 0 0 1 2.071.923a4.955 4.955 0 0 0-.693 2.539c0 1.752.906 3.299 2.28 4.203a5.189 5.189 0 0 1-2.323-.634v.063c0 2.447 1.769 4.488 4.114 4.953a5.27 5.27 0 0 1-1.352.177c-.33 0-.651-.032-.965-.094.653 2.008 2.546 3.468 4.79 3.508a10.39 10.39 0 0 1-6.37 2.159c-.413 0-.821-.025-1.223-.07A14.659 14.659 0 0 0 8.19 20c9.435 0 14.591-7.696 14.591-14.37l-.017-.654a10.158 10.158 0 0 0 2.565-2.61z" fill-rule="nonzero"/></svg>
